<svg width="440" height="956" viewBox="0 0 440 956" fill="none" xmlns="http://www.w3.org/2000/svg">
<g filter="url(#filter0_i_12_3)">
<path d="M-0.34534 227.322C-2.34683 251.893 -2.74721 291.332 -0.34534 378.526L2.65708 539.18L442 548C435.995 498.859 392.461 452.868 339.92 500.119C363.939 428.297 276.557 318.159 203.5 361C219.012 299.259 159.042 206.999 105.5 270C113.506 210.779 54.1972 159.281 -0.34534 227.322Z" fill="#FABC4D"/>
</g>
<g filter="url(#filter1_i_12_3)">
<path d="M103.86 549.021C143.81 413.769 94.2381 317.597 -68.5525 361.926L-71 617.822L563.988 682L623 551.469L544.136 546.574C487.805 464.109 343.007 455.093 276 531.889C236.944 437.061 148.316 433.304 103.86 549.021Z" fill="#C800FF"/>
</g>
<g filter="url(#filter2_i_12_3)">
<path d="M-59.7256 537.551C-21.8926 525.231 1.69334 551.667 -1.61705 572.967C55.369 515.122 155.39 537.884 181.164 579.023C217.342 504.472 332.969 489.228 367.492 571.505C348.994 523.721 445.812 499.3 456.517 549.6C442.48 462.743 478.834 440.928 501 451.437V764L-61 662.576L-59.7256 537.551Z" fill="#A5DFE1"/>
</g>
<g filter="url(#filter3_i_12_3)">
<path d="M45.0639 618.84C53.341 596.893 34.641 575.495 3.06557 578.238L0 726.106L204 739.5L187 667.947C169.22 588.938 67.7492 581.256 45.0639 618.84Z" fill="#A5DFE1"/>
</g>
<g filter="url(#filter4_i_12_3)">
<path d="M431.54 605.765C444.311 588.193 477.503 581.304 494.221 630.752C500.068 645.075 529.21 700.577 599 808L72.0629 805.898L-16 729.721L76.0622 692.147C90.7968 657.118 144.099 634.255 185.496 687.266C196.722 656.44 235.762 628.272 274.839 657.374C268.524 642.662 265.016 608.1 308.05 604.13C312.793 568.153 351.622 571.284 358.101 601.561C371.432 577.041 419.378 574.005 431.54 605.765Z" fill="#F79B9C"/>
</g>
<g filter="url(#filter5_i_12_3)">
<path d="M345.583 712.89C347.261 650.655 429.859 618.455 459.216 623.518L462 901L107.434 898.975L105.409 792.387C98.0972 724.352 190.484 676.108 249.958 715.351C262.119 655.589 330.388 658.531 345.583 712.89Z" fill="url(#paint0_linear_12_3)"/>
</g>
<path d="M41.3097 707.687C39.8839 662.853 12.7935 623 -20 623L-17.8613 855L201 826.178C192.445 793.442 159.652 758.926 125.076 773.871C121.511 740.779 97.9855 693.81 41.3097 707.687Z" fill="#C800FF"/>
<g filter="url(#filter6_i_12_3)">
<path d="M315 811.766C225.741 740.464 90.6635 749.383 2 835.873L96.8485 967L181.483 962.252L315 811.766Z" fill="#77E4E4"/>
</g>
<g filter="url(#filter7_i_12_3)">
<path d="M65.3426 835.038C55.5433 796.925 24.5121 755.943 -40 765.369L-35.1003 967H314C294.81 930.936 249.488 878.479 177.626 887.905C180.076 844.874 127.405 806.351 65.3426 835.038Z" fill="#FABC4D"/>
</g>
<g filter="url(#filter8_i_12_3)">
<path d="M366.643 756.722C380.959 727.271 443.121 699.708 471 737.088V981C458.316 980.497 386.234 979.112 199.371 977.602L194.034 896.235C167.345 809.1 254.375 776.733 277.356 795.234C279.993 758.987 333.867 727.271 366.643 756.722Z" fill="#F79B9C"/>
</g>
<g filter="url(#filter9_i_12_3)">
<path d="M400 840.245C260.27 684.84 95.4993 789.083 133.562 955.36L362.939 956L400 840.245Z" fill="#96C65F"/>
</g>
<g filter="url(#filter10_i_12_3)">
<path d="M437 328.971C277.235 545.081 88.8392 400.119 132.359 168.89L394.625 168L437 328.971Z" fill="#96C65F"/>
</g>
<g filter="url(#filter11_i_12_3)">
<path d="M181.348 901.818C162.56 887.543 100.69 899.547 90 955.351L489.404 956V877.809C499.122 813.894 387.366 746.41 350.762 848.285C321.285 806.108 249.373 810.325 237.063 877.809C223.458 867.103 189.77 865.805 181.348 901.818Z" fill="#D500FF"/>
</g>
<g filter="url(#filter12_i_12_3)">
<path d="M281 339.5C218 325 153 399 180 463C231 450.5 257.5 497.5 269 517C278 515.5 280 516 292.5 515.5C308 504.5 321.5 495 341 489C372.5 478.5 378.5 481.5 410 479.5C423 480 423.5 479.5 440.5 482.5L438 179C389 153 346 198.5 362 256.5C312.5 226 257.5 281 281 339.5Z" fill="#F79B9C"/>
</g>
<g filter="url(#filter13_i_12_3)">
<ellipse cx="255" cy="739.5" rx="75" ry="73.5" fill="#96C65F"/>
</g>
<g filter="url(#filter14_i_12_3)">
<path d="M398.074 218.732C394.184 202.289 386.757 202.646 382.16 214.8C365.186 211.583 368.015 223.379 378.27 230.17C371.905 242.682 379.331 244.111 388.879 238.034C400.196 248.758 404.086 240.179 401.257 230.528C414.695 226.239 411.866 215.515 398.074 218.732Z" fill="#90FE00"/>
</g>
<g filter="url(#filter15_i_12_3)">
<path d="M343.074 878.732C339.184 862.289 331.757 862.646 327.16 874.8C310.186 871.583 313.015 883.379 323.27 890.17C316.905 902.682 324.331 904.111 333.879 898.034C345.196 908.758 349.086 900.179 346.257 890.528C359.695 886.239 356.866 875.515 343.074 878.732Z" fill="#FFF203"/>
</g>
<g filter="url(#filter16_i_12_3)">
<path d="M41.074 307.732C37.1838 291.289 29.7575 291.646 25.1603 303.8C8.1856 300.583 11.0145 312.379 21.2703 319.17C14.9046 331.682 22.331 333.111 31.8794 327.034C43.1956 337.758 47.0856 329.179 44.2567 319.528C57.6947 315.239 54.8656 304.515 41.074 307.732Z" fill="#03FFF2"/>
</g>
<g filter="url(#filter17_i_12_3)">
<path d="M127.406 776.015C133.04 763.721 128.137 760.243 119.216 765.604C109.998 755.115 105.98 763.954 109.158 773.344C98.9347 778.049 102.956 782.652 112.032 783.586C113.945 795.981 120.653 792.518 123.613 785.03C134.282 789.029 137.771 780.865 127.406 776.015Z" fill="#FF03AB"/>
</g>
<g filter="url(#filter18_i_12_3)">
<path d="M75.5271 727.684C70.8189 711.456 63.4197 712.185 59.4365 724.553C42.3221 722.189 45.7378 733.829 56.3206 740.099C50.589 752.913 58.0776 753.969 67.31 747.422C79.1486 757.566 82.6044 748.803 79.2961 739.306C92.5026 734.349 89.1404 723.781 75.5271 727.684Z" fill="#FFB303"/>
</g>
<path d="M180.294 832.312C173.144 809.197 197.422 812.024 190.438 832.145L180.294 832.312Z" fill="#FF0095"/>
<path d="M189.828 832.183C211.43 821.286 212.682 845.696 191.68 842.157L189.828 832.183Z" fill="#FF0095"/>
<path d="M191.94 840.366C208.314 858.178 185.171 866.039 182.849 844.868L191.94 840.366Z" fill="#FF0095"/>
<path d="M187.687 843.292C173.996 867.574 159.515 849.242 180.551 836.775L187.687 843.292Z" fill="#FF0095"/>
<path d="M178.964 840.937C154.769 840.847 164.727 818.526 181.839 831.208L178.964 840.937Z" fill="#FF0095"/>
<ellipse cx="185.283" cy="837.467" rx="7.31665" ry="7.31667" fill="#FFD000"/>
<path d="M34.138 904.547C20.8504 861.595 65.966 866.848 52.9876 904.238L34.138 904.547Z" fill="#FF0000"/>
<path d="M51.8538 904.308C91.9972 884.059 94.3233 929.42 55.2947 922.843L51.8538 904.308Z" fill="#FF0000"/>
<path d="M55.7786 919.515C86.2068 952.616 43.1995 967.223 38.8838 927.88L55.7786 919.515Z" fill="#FF0000"/>
<path d="M47.8751 924.953C22.4338 970.076 -4.47641 936.009 34.614 912.841L47.8751 924.953Z" fill="#FF0000"/>
<path d="M31.6652 920.575C-13.2956 920.409 5.21009 878.929 37.0077 902.496L31.6652 920.575Z" fill="#FF0000"/>
<ellipse cx="43.4076" cy="914.126" rx="13.5965" ry="13.5965" fill="#FFD000"/>
<path d="M305.138 193.312C291.85 150.359 336.966 155.612 323.988 193.003L305.138 193.312Z" fill="#FF0000"/>
<path d="M322.854 193.072C362.997 172.823 365.323 218.184 326.295 211.608L322.854 193.072Z" fill="#FF0000"/>
<path d="M326.779 208.28C357.207 241.38 314.2 255.987 309.884 216.645L326.779 208.28Z" fill="#FF0000"/>
<path d="M318.875 213.717C293.434 258.84 266.524 224.773 305.614 201.606L318.875 213.717Z" fill="#FF0000"/>
<path d="M302.665 209.339C257.704 209.173 276.21 167.693 308.008 191.26L302.665 209.339Z" fill="#FF0000"/>
<ellipse cx="314.408" cy="202.891" rx="13.5965" ry="13.5965" fill="#FFD000"/>
<path d="M433.138 876.312C419.85 833.359 464.966 838.612 451.988 876.003L433.138 876.312Z" fill="#FF0000"/>
<path d="M454.779 891.28C485.207 924.38 442.2 938.987 437.884 899.645L454.779 891.28Z" fill="#FF0000"/>
<path d="M446.875 896.717C421.434 941.84 394.524 907.773 433.614 884.606L446.875 896.717Z" fill="#FF0000"/>
<path d="M430.665 892.339C385.704 892.173 404.21 850.693 436.008 874.26L430.665 892.339Z" fill="#FF0000"/>
<ellipse cx="442.408" cy="885.891" rx="13.5965" ry="13.5965" fill="#FFD000"/>
<path d="M363.904 902.754C331.184 861.568 382.599 848.142 384.323 894.415L363.904 902.754Z" fill="#11FF00"/>
<path d="M383.117 894.972C418.285 855.856 440.078 904.321 394.737 913.719L383.117 894.972Z" fill="#11FF00"/>
<path d="M393.851 909.885C441.076 933.054 400.39 967.237 378.984 926.177L393.851 909.885Z" fill="#11FF00"/>
<path d="M387.543 919.168C378.962 979.161 335.163 953.446 367.944 911.594L387.543 919.168Z" fill="#11FF00"/>
<path d="M368.013 921.277C318.926 940.182 321.492 887.105 366.162 899.299L368.013 921.277Z" fill="#11FF00"/>
<ellipse cx="378.077" cy="909.262" rx="15.907" ry="15.907" transform="rotate(-21.2755 378.077 909.262)" fill="#FFD000"/>
<path d="M406.904 927.754C374.184 886.568 425.599 873.142 427.323 919.415L406.904 927.754Z" fill="#EEFF00"/>
<path d="M426.117 919.972C461.285 880.856 483.078 929.321 437.737 938.719L426.117 919.972Z" fill="#EEFF00"/>
<path d="M436.851 934.885C484.076 958.054 443.39 992.237 421.984 951.177L436.851 934.885Z" fill="#EEFF00"/>
<path d="M430.543 944.168C421.962 1004.16 378.163 978.446 410.944 936.594L430.543 944.168Z" fill="#EEFF00"/>
<path d="M411.013 946.277C361.926 965.182 364.492 912.105 409.162 924.299L411.013 946.277Z" fill="#EEFF00"/>
<ellipse cx="421.077" cy="934.262" rx="15.907" ry="15.907" transform="rotate(-21.2755 421.077 934.262)" fill="#FFD000"/>
<path d="M124.728 930.209C113.677 894.487 151.198 898.856 140.404 929.952L124.728 930.209Z" fill="#0091FF"/>
<path d="M139.461 930.01C172.847 913.17 174.782 950.894 142.323 945.425L139.461 930.01Z" fill="#0091FF"/>
<path d="M142.725 942.657C168.031 970.185 132.264 982.334 128.675 949.614L142.725 942.657Z" fill="#0091FF"/>
<path d="M136.152 947.179C114.994 984.706 92.6138 956.374 125.124 937.107L136.152 947.179Z" fill="#0091FF"/>
<path d="M122.671 943.539C85.2793 943.4 100.67 908.903 127.114 928.503L122.671 943.539Z" fill="#0091FF"/>
<ellipse cx="132.437" cy="938.175" rx="11.3076" ry="11.3076" fill="#FFD000"/>
<g filter="url(#filter19_i_12_3)">
<path d="M105.703 275.964C99.7236 264.195 82.6608 228.07 65 190H174L141.576 275.964C129.158 303.596 117.43 298.99 105.703 275.964Z" fill="url(#paint1_linear_12_3)"/>
</g>
<g filter="url(#filter20_i_12_3)">
<path d="M560.701 217.762C522.127 230.317 498.08 203.378 501.455 181.672C443.353 240.618 341.374 217.423 315.096 175.5C278.21 251.471 160.32 267.006 125.121 183.161C143.982 231.856 45.2683 256.742 34.3539 205.484C48.6655 293.996 11.6 316.226 -11 305.517V-13L562 90.3555L560.701 217.762Z" fill="#A5DFE1"/>
</g>
<g filter="url(#filter21_i_12_3)">
<path d="M330.583 127.11C332.261 189.345 414.859 221.545 444.216 216.482L447 -61L92.4336 -58.9746L90.409 47.6128C83.0972 115.648 175.484 163.892 234.958 124.649C247.119 184.411 315.388 181.469 330.583 127.11Z" fill="url(#paint2_linear_12_3)"/>
</g>
<g filter="url(#filter22_i_12_3)">
<path d="M388.074 35.7316C384.184 19.2888 376.757 19.6463 372.16 31.7996C355.186 28.5828 358.015 40.3789 368.27 47.1704C361.905 59.6815 369.331 61.1113 378.879 55.0344C390.196 65.7583 394.086 57.1793 391.257 47.5278C404.695 43.2385 401.866 32.5148 388.074 35.7316Z" fill="#B600FE"/>
</g>
<g filter="url(#filter23_i_12_3)">
<path d="M40.074 72.7316C36.1838 56.2888 28.7575 56.6463 24.1603 68.7996C7.1856 65.5828 10.0145 77.3789 20.2703 84.1704C13.9046 96.6815 21.331 98.1113 30.8794 92.0344C42.1956 102.758 46.0856 94.1793 43.2567 84.5278C56.6947 80.2385 53.8656 69.5148 40.074 72.7316Z" fill="#FF0308"/>
</g>
<g filter="url(#filter24_i_12_3)">
<path d="M73.074 138.732C69.1838 122.289 61.7575 122.646 57.1603 134.8C40.1856 131.583 43.0145 143.379 53.2703 150.17C46.9046 162.682 54.331 164.111 63.8794 158.034C75.1956 168.758 79.0856 160.179 76.2567 150.528C89.6947 146.239 86.8656 135.515 73.074 138.732Z" fill="#FEF100"/>
</g>
<path d="M77.9043 32.7539C45.1841 -8.43248 96.5993 -21.8577 98.3231 24.415L77.9043 32.7539Z" fill="#11FF00"/>
<path d="M97.1169 24.972C132.285 -14.1446 154.078 34.3204 108.737 43.7188L97.1169 24.972Z" fill="#11FF00"/>
<path d="M107.851 39.8852C155.076 63.0538 114.39 97.2364 92.9838 56.1768L107.851 39.8852Z" fill="#11FF00"/>
<path d="M101.543 49.1681C92.9623 109.161 49.1628 83.4454 81.9444 41.5937L101.543 49.1681Z" fill="#11FF00"/>
<path d="M82.0127 51.277C32.9256 70.1819 35.4919 17.1048 80.1622 29.2989L82.0127 51.277Z" fill="#11FF00"/>
<ellipse cx="92.0765" cy="39.2616" rx="15.907" ry="15.907" transform="rotate(-21.2755 92.0765 39.2616)" fill="#FFD000"/>
<g filter="url(#filter25_i_12_3)">
<path d="M353.074 358.732C349.184 342.289 341.757 342.646 337.16 354.8C320.186 351.583 323.015 363.379 333.27 370.17C326.905 382.682 334.331 384.111 343.879 378.034C355.196 388.758 359.086 380.179 356.257 370.528C369.695 366.239 366.866 355.515 353.074 358.732Z" fill="#FFB303"/>
</g>
<defs>
<filter id="filter0_i_12_3" x="-6" y="194.981" width="448" height="357.019" filterUnits="userSpaceOnUse" color-interpolation-filters="sRGB">
<feFlood flood-opacity="0" result="BackgroundImageFix"/>
<feBlend mode="normal" in="SourceGraphic" in2="BackgroundImageFix" result="shape"/>
<feColorMatrix in="SourceAlpha" type="matrix" values="0 0 0 0 0 0 0 0 0 0 0 0 0 0 0 0 0 0 127 0" result="hardAlpha"/>
<feOffset dx="-8" dy="20"/>
<feGaussianBlur stdDeviation="2"/>
<feComposite in2="hardAlpha" operator="arithmetic" k2="-1" k3="1"/>
<feColorMatrix type="matrix" values="0 0 0 0 0.945823 0 0 0 0 0.785828 0 0 0 0 0.345841 0 0 0 1 0"/>
<feBlend mode="normal" in2="shape" result="effect1_innerShadow_12_3"/>
</filter>
<filter id="filter1_i_12_3" x="-75" y="351" width="698" height="335" filterUnits="userSpaceOnUse" color-interpolation-filters="sRGB">
<feFlood flood-opacity="0" result="BackgroundImageFix"/>
<feBlend mode="normal" in="SourceGraphic" in2="BackgroundImageFix" result="shape"/>
<feColorMatrix in="SourceAlpha" type="matrix" values="0 0 0 0 0 0 0 0 0 0 0 0 0 0 0 0 0 0 127 0" result="hardAlpha"/>
<feOffset dx="-9" dy="20"/>
<feGaussianBlur stdDeviation="2"/>
<feComposite in2="hardAlpha" operator="arithmetic" k2="-1" k3="1"/>
<feColorMatrix type="matrix" values="0 0 0 0 0.869031 0 0 0 0 0.645281 0 0 0 0 0.99857 0 0 0 1 0"/>
<feBlend mode="normal" in2="shape" result="effect1_innerShadow_12_3"/>
</filter>
<filter id="filter2_i_12_3" x="-61" y="449" width="566" height="319" filterUnits="userSpaceOnUse" color-interpolation-filters="sRGB">
<feFlood flood-opacity="0" result="BackgroundImageFix"/>
<feBlend mode="normal" in="SourceGraphic" in2="BackgroundImageFix" result="shape"/>
<feColorMatrix in="SourceAlpha" type="matrix" values="0 0 0 0 0 0 0 0 0 0 0 0 0 0 0 0 0 0 127 0" result="hardAlpha"/>
<feOffset dx="5" dy="16"/>
<feGaussianBlur stdDeviation="2"/>
<feComposite in2="hardAlpha" operator="arithmetic" k2="-1" k3="1"/>
<feColorMatrix type="matrix" values="0 0 0 0 0.773394 0 0 0 0 1 0 0 0 0 0.996223 0 0 0 1 0"/>
<feBlend mode="normal" in2="shape" result="effect1_innerShadow_12_3"/>
</filter>
<filter id="filter3_i_12_3" x="-4" y="578" width="208" height="165.5" filterUnits="userSpaceOnUse" color-interpolation-filters="sRGB">
<feFlood flood-opacity="0" result="BackgroundImageFix"/>
<feBlend mode="normal" in="SourceGraphic" in2="BackgroundImageFix" result="shape"/>
<feColorMatrix in="SourceAlpha" type="matrix" values="0 0 0 0 0 0 0 0 0 0 0 0 0 0 0 0 0 0 127 0" result="hardAlpha"/>
<feOffset dx="-9" dy="8"/>
<feGaussianBlur stdDeviation="2"/>
<feComposite in2="hardAlpha" operator="arithmetic" k2="-1" k3="1"/>
<feColorMatrix type="matrix" values="0 0 0 0 0.815256 0 0 0 0 0.926102 0 0 0 0 1 0 0 0 1 0"/>
<feBlend mode="normal" in2="shape" result="effect1_innerShadow_12_3"/>
</filter>
<filter id="filter4_i_12_3" x="-16" y="578" width="619" height="234" filterUnits="userSpaceOnUse" color-interpolation-filters="sRGB">
<feFlood flood-opacity="0" result="BackgroundImageFix"/>
<feBlend mode="normal" in="SourceGraphic" in2="BackgroundImageFix" result="shape"/>
<feColorMatrix in="SourceAlpha" type="matrix" values="0 0 0 0 0 0 0 0 0 0 0 0 0 0 0 0 0 0 127 0" result="hardAlpha"/>
<feOffset dx="5" dy="9"/>
<feGaussianBlur stdDeviation="2"/>
<feComposite in2="hardAlpha" operator="arithmetic" k2="-1" k3="1"/>
<feColorMatrix type="matrix" values="0 0 0 0 0.983516 0 0 0 0 0.795772 0 0 0 0 0.795772 0 0 0 1 0"/>
<feBlend mode="normal" in2="shape" result="effect1_innerShadow_12_3"/>
</filter>
<filter id="filter5_i_12_3" x="105" y="623" width="360" height="282" filterUnits="userSpaceOnUse" color-interpolation-filters="sRGB">
<feFlood flood-opacity="0" result="BackgroundImageFix"/>
<feBlend mode="normal" in="SourceGraphic" in2="BackgroundImageFix" result="shape"/>
<feColorMatrix in="SourceAlpha" type="matrix" values="0 0 0 0 0 0 0 0 0 0 0 0 0 0 0 0 0 0 127 0" result="hardAlpha"/>
<feOffset dx="3" dy="15"/>
<feGaussianBlur stdDeviation="2"/>
<feComposite in2="hardAlpha" operator="arithmetic" k2="-1" k3="1"/>
<feColorMatrix type="matrix" values="0 0 0 0 0.839972 0 0 0 0 0.655536 0 0 0 0 0.358834 0 0 0 0.25 0"/>
<feBlend mode="normal" in2="shape" result="effect1_innerShadow_12_3"/>
</filter>
<filter id="filter6_i_12_3" x="2" y="764" width="314" height="207" filterUnits="userSpaceOnUse" color-interpolation-filters="sRGB">
<feFlood flood-opacity="0" result="BackgroundImageFix"/>
<feBlend mode="normal" in="SourceGraphic" in2="BackgroundImageFix" result="shape"/>
<feColorMatrix in="SourceAlpha" type="matrix" values="0 0 0 0 0 0 0 0 0 0 0 0 0 0 0 0 0 0 127 0" result="hardAlpha"/>
<feOffset dx="1" dy="10"/>
<feGaussianBlur stdDeviation="2"/>
<feComposite in2="hardAlpha" operator="arithmetic" k2="-1" k3="1"/>
<feColorMatrix type="matrix" values="0 0 0 0 0.677198 0 0 0 0 1 0 0 0 0 1 0 0 0 1 0"/>
<feBlend mode="normal" in2="shape" result="effect1_innerShadow_12_3"/>
</filter>
<filter id="filter7_i_12_3" x="-44" y="764" width="358" height="207" filterUnits="userSpaceOnUse" color-interpolation-filters="sRGB">
<feFlood flood-opacity="0" result="BackgroundImageFix"/>
<feBlend mode="normal" in="SourceGraphic" in2="BackgroundImageFix" result="shape"/>
<feColorMatrix in="SourceAlpha" type="matrix" values="0 0 0 0 0 0 0 0 0 0 0 0 0 0 0 0 0 0 127 0" result="hardAlpha"/>
<feOffset dx="-7" dy="7"/>
<feGaussianBlur stdDeviation="2"/>
<feComposite in2="hardAlpha" operator="arithmetic" k2="-1" k3="1"/>
<feColorMatrix type="matrix" values="0 0 0 0 0.967033 0 0 0 0 0.807555 0 0 0 0 0.522039 0 0 0 1 0"/>
<feBlend mode="normal" in2="shape" result="effect1_innerShadow_12_3"/>
</filter>
<filter id="filter8_i_12_3" x="189" y="719" width="286" height="266" filterUnits="userSpaceOnUse" color-interpolation-filters="sRGB">
<feFlood flood-opacity="0" result="BackgroundImageFix"/>
<feBlend mode="normal" in="SourceGraphic" in2="BackgroundImageFix" result="shape"/>
<feColorMatrix in="SourceAlpha" type="matrix" values="0 0 0 0 0 0 0 0 0 0 0 0 0 0 0 0 0 0 127 0" result="hardAlpha"/>
<feOffset dx="7" dy="7"/>
<feGaussianBlur stdDeviation="2"/>
<feComposite in2="hardAlpha" operator="arithmetic" k2="-1" k3="1"/>
<feColorMatrix type="matrix" values="0 0 0 0 0.901099 0 0 0 0 0.733999 0 0 0 0 0.738322 0 0 0 1 0"/>
<feBlend mode="normal" in2="shape" result="effect1_innerShadow_12_3"/>
</filter>
<filter id="filter9_i_12_3" x="128" y="764" width="276" height="196" filterUnits="userSpaceOnUse" color-interpolation-filters="sRGB">
<feFlood flood-opacity="0" result="BackgroundImageFix"/>
<feBlend mode="normal" in="SourceGraphic" in2="BackgroundImageFix" result="shape"/>
<feColorMatrix in="SourceAlpha" type="matrix" values="0 0 0 0 0 0 0 0 0 0 0 0 0 0 0 0 0 0 127 0" result="hardAlpha"/>
<feOffset dx="14" dy="9"/>
<feGaussianBlur stdDeviation="2"/>
<feComposite in2="hardAlpha" operator="arithmetic" k2="-1" k3="1"/>
<feColorMatrix type="matrix" values="0 0 0 0 0.683218 0 0 0 0 0.917582 0 0 0 0 0.414676 0 0 0 1 0"/>
<feBlend mode="normal" in2="shape" result="effect1_innerShadow_12_3"/>
</filter>
<filter id="filter10_i_12_3" x="126" y="168" width="315" height="271" filterUnits="userSpaceOnUse" color-interpolation-filters="sRGB">
<feFlood flood-opacity="0" result="BackgroundImageFix"/>
<feBlend mode="normal" in="SourceGraphic" in2="BackgroundImageFix" result="shape"/>
<feColorMatrix in="SourceAlpha" type="matrix" values="0 0 0 0 0 0 0 0 0 0 0 0 0 0 0 0 0 0 127 0" result="hardAlpha"/>
<feOffset dx="14" dy="9"/>
<feGaussianBlur stdDeviation="2"/>
<feComposite in2="hardAlpha" operator="arithmetic" k2="-1" k3="1"/>
<feColorMatrix type="matrix" values="0 0 0 0 0.683218 0 0 0 0 0.917582 0 0 0 0 0.414676 0 0 0 1 0"/>
<feBlend mode="normal" in2="shape" result="effect1_innerShadow_12_3"/>
</filter>
<filter id="filter11_i_12_3" x="90" y="796" width="404" height="164" filterUnits="userSpaceOnUse" color-interpolation-filters="sRGB">
<feFlood flood-opacity="0" result="BackgroundImageFix"/>
<feBlend mode="normal" in="SourceGraphic" in2="BackgroundImageFix" result="shape"/>
<feColorMatrix in="SourceAlpha" type="matrix" values="0 0 0 0 0 0 0 0 0 0 0 0 0 0 0 0 0 0 127 0" result="hardAlpha"/>
<feOffset dx="7" dy="7"/>
<feGaussianBlur stdDeviation="2"/>
<feComposite in2="hardAlpha" operator="arithmetic" k2="-1" k3="1"/>
<feColorMatrix type="matrix" values="0 0 0 0 0.859353 0 0 0 0 0.694172 0 0 0 0 0.892857 0 0 0 1 0"/>
<feBlend mode="normal" in2="shape" result="effect1_innerShadow_12_3"/>
</filter>
<filter id="filter12_i_12_3" x="173.72" y="171.507" width="270.78" height="349.493" filterUnits="userSpaceOnUse" color-interpolation-filters="sRGB">
<feFlood flood-opacity="0" result="BackgroundImageFix"/>
<feBlend mode="normal" in="SourceGraphic" in2="BackgroundImageFix" result="shape"/>
<feColorMatrix in="SourceAlpha" type="matrix" values="0 0 0 0 0 0 0 0 0 0 0 0 0 0 0 0 0 0 127 0" result="hardAlpha"/>
<feOffset dx="7" dy="13"/>
<feGaussianBlur stdDeviation="2"/>
<feComposite in2="hardAlpha" operator="arithmetic" k2="-1" k3="1"/>
<feColorMatrix type="matrix" values="0 0 0 0 1 0 0 0 0 0.759997 0 0 0 0 0.759997 0 0 0 1 0"/>
<feBlend mode="normal" in2="shape" result="effect1_innerShadow_12_3"/>
</filter>
<filter id="filter13_i_12_3" x="180" y="666" width="154" height="151" filterUnits="userSpaceOnUse" color-interpolation-filters="sRGB">
<feFlood flood-opacity="0" result="BackgroundImageFix"/>
<feBlend mode="normal" in="SourceGraphic" in2="BackgroundImageFix" result="shape"/>
<feColorMatrix in="SourceAlpha" type="matrix" values="0 0 0 0 0 0 0 0 0 0 0 0 0 0 0 0 0 0 127 0" result="hardAlpha"/>
<feOffset dx="12" dy="8"/>
<feGaussianBlur stdDeviation="2"/>
<feComposite in2="hardAlpha" operator="arithmetic" k2="-1" k3="1"/>
<feColorMatrix type="matrix" values="0 0 0 0 0.811739 0 0 0 0 0.974882 0 0 0 0 0.275696 0 0 0 0.46 0"/>
<feBlend mode="normal" in2="shape" result="effect1_innerShadow_12_3"/>
</filter>
<filter id="filter14_i_12_3" x="370" y="206" width="44" height="41" filterUnits="userSpaceOnUse" color-interpolation-filters="sRGB">
<feFlood flood-opacity="0" result="BackgroundImageFix"/>
<feBlend mode="normal" in="SourceGraphic" in2="BackgroundImageFix" result="shape"/>
<feColorMatrix in="SourceAlpha" type="matrix" values="0 0 0 0 0 0 0 0 0 0 0 0 0 0 0 0 0 0 127 0" result="hardAlpha"/>
<feOffset dx="5" dy="4"/>
<feGaussianBlur stdDeviation="2"/>
<feComposite in2="hardAlpha" operator="arithmetic" k2="-1" k3="1"/>
<feColorMatrix type="matrix" values="0 0 0 0 1 0 0 0 0 0.949176 0 0 0 0 0.949176 0 0 0 0.3 0"/>
<feBlend mode="normal" in2="shape" result="effect1_innerShadow_12_3"/>
</filter>
<filter id="filter15_i_12_3" x="315" y="866" width="44" height="41" filterUnits="userSpaceOnUse" color-interpolation-filters="sRGB">
<feFlood flood-opacity="0" result="BackgroundImageFix"/>
<feBlend mode="normal" in="SourceGraphic" in2="BackgroundImageFix" result="shape"/>
<feColorMatrix in="SourceAlpha" type="matrix" values="0 0 0 0 0 0 0 0 0 0 0 0 0 0 0 0 0 0 127 0" result="hardAlpha"/>
<feOffset dx="5" dy="4"/>
<feGaussianBlur stdDeviation="2"/>
<feComposite in2="hardAlpha" operator="arithmetic" k2="-1" k3="1"/>
<feColorMatrix type="matrix" values="0 0 0 0 1 0 0 0 0 0.949176 0 0 0 0 0.949176 0 0 0 0.3 0"/>
<feBlend mode="normal" in2="shape" result="effect1_innerShadow_12_3"/>
</filter>
<filter id="filter16_i_12_3" x="13" y="295" width="44" height="41" filterUnits="userSpaceOnUse" color-interpolation-filters="sRGB">
<feFlood flood-opacity="0" result="BackgroundImageFix"/>
<feBlend mode="normal" in="SourceGraphic" in2="BackgroundImageFix" result="shape"/>
<feColorMatrix in="SourceAlpha" type="matrix" values="0 0 0 0 0 0 0 0 0 0 0 0 0 0 0 0 0 0 127 0" result="hardAlpha"/>
<feOffset dx="5" dy="4"/>
<feGaussianBlur stdDeviation="2"/>
<feComposite in2="hardAlpha" operator="arithmetic" k2="-1" k3="1"/>
<feColorMatrix type="matrix" values="0 0 0 0 1 0 0 0 0 0.949176 0 0 0 0 0.949176 0 0 0 0.3 0"/>
<feBlend mode="normal" in2="shape" result="effect1_innerShadow_12_3"/>
</filter>
<filter id="filter17_i_12_3" x="103.133" y="760.857" width="34.4963" height="34.9261" filterUnits="userSpaceOnUse" color-interpolation-filters="sRGB">
<feFlood flood-opacity="0" result="BackgroundImageFix"/>
<feBlend mode="normal" in="SourceGraphic" in2="BackgroundImageFix" result="shape"/>
<feColorMatrix in="SourceAlpha" type="matrix" values="0 0 0 0 0 0 0 0 0 0 0 0 0 0 0 0 0 0 127 0" result="hardAlpha"/>
<feOffset dx="5" dy="4"/>
<feGaussianBlur stdDeviation="2"/>
<feComposite in2="hardAlpha" operator="arithmetic" k2="-1" k3="1"/>
<feColorMatrix type="matrix" values="0 0 0 0 1 0 0 0 0 0.949176 0 0 0 0 0.949176 0 0 0 0.3 0"/>
<feBlend mode="normal" in2="shape" result="effect1_innerShadow_12_3"/>
</filter>
<filter id="filter18_i_12_3" x="47.4918" y="715.376" width="44.1531" height="40.5726" filterUnits="userSpaceOnUse" color-interpolation-filters="sRGB">
<feFlood flood-opacity="0" result="BackgroundImageFix"/>
<feBlend mode="normal" in="SourceGraphic" in2="BackgroundImageFix" result="shape"/>
<feColorMatrix in="SourceAlpha" type="matrix" values="0 0 0 0 0 0 0 0 0 0 0 0 0 0 0 0 0 0 127 0" result="hardAlpha"/>
<feOffset dx="5" dy="4"/>
<feGaussianBlur stdDeviation="2"/>
<feComposite in2="hardAlpha" operator="arithmetic" k2="-1" k3="1"/>
<feColorMatrix type="matrix" values="0 0 0 0 1 0 0 0 0 0.949176 0 0 0 0 0.949176 0 0 0 0.3 0"/>
<feBlend mode="normal" in2="shape" result="effect1_innerShadow_12_3"/>
</filter>
<filter id="filter19_i_12_3" x="61" y="186" width="113" height="109" filterUnits="userSpaceOnUse" color-interpolation-filters="sRGB">
<feFlood flood-opacity="0" result="BackgroundImageFix"/>
<feBlend mode="normal" in="SourceGraphic" in2="BackgroundImageFix" result="shape"/>
<feColorMatrix in="SourceAlpha" type="matrix" values="0 0 0 0 0 0 0 0 0 0 0 0 0 0 0 0 0 0 127 0" result="hardAlpha"/>
<feOffset dx="-6" dy="-4"/>
<feGaussianBlur stdDeviation="2"/>
<feComposite in2="hardAlpha" operator="arithmetic" k2="-1" k3="1"/>
<feColorMatrix type="matrix" values="0 0 0 0 0.967925 0 0 0 0 1 0 0 0 0 0.518868 0 0 0 0.78 0"/>
<feBlend mode="normal" in2="shape" result="effect1_innerShadow_12_3"/>
</filter>
<filter id="filter20_i_12_3" x="-11" y="-13" width="577" height="325" filterUnits="userSpaceOnUse" color-interpolation-filters="sRGB">
<feFlood flood-opacity="0" result="BackgroundImageFix"/>
<feBlend mode="normal" in="SourceGraphic" in2="BackgroundImageFix" result="shape"/>
<feColorMatrix in="SourceAlpha" type="matrix" values="0 0 0 0 0 0 0 0 0 0 0 0 0 0 0 0 0 0 127 0" result="hardAlpha"/>
<feOffset dx="5" dy="16"/>
<feGaussianBlur stdDeviation="2"/>
<feComposite in2="hardAlpha" operator="arithmetic" k2="-1" k3="1"/>
<feColorMatrix type="matrix" values="0 0 0 0 0.773394 0 0 0 0 1 0 0 0 0 0.996223 0 0 0 1 0"/>
<feBlend mode="normal" in2="shape" result="effect1_innerShadow_12_3"/>
</filter>
<filter id="filter21_i_12_3" x="90" y="-61" width="360" height="282" filterUnits="userSpaceOnUse" color-interpolation-filters="sRGB">
<feFlood flood-opacity="0" result="BackgroundImageFix"/>
<feBlend mode="normal" in="SourceGraphic" in2="BackgroundImageFix" result="shape"/>
<feColorMatrix in="SourceAlpha" type="matrix" values="0 0 0 0 0 0 0 0 0 0 0 0 0 0 0 0 0 0 127 0" result="hardAlpha"/>
<feOffset dx="3" dy="15"/>
<feGaussianBlur stdDeviation="2"/>
<feComposite in2="hardAlpha" operator="arithmetic" k2="-1" k3="1"/>
<feColorMatrix type="matrix" values="0 0 0 0 0.839972 0 0 0 0 0.655536 0 0 0 0 0.358834 0 0 0 0.25 0"/>
<feBlend mode="normal" in2="shape" result="effect1_innerShadow_12_3"/>
</filter>
<filter id="filter22_i_12_3" x="360" y="23" width="44" height="41" filterUnits="userSpaceOnUse" color-interpolation-filters="sRGB">
<feFlood flood-opacity="0" result="BackgroundImageFix"/>
<feBlend mode="normal" in="SourceGraphic" in2="BackgroundImageFix" result="shape"/>
<feColorMatrix in="SourceAlpha" type="matrix" values="0 0 0 0 0 0 0 0 0 0 0 0 0 0 0 0 0 0 127 0" result="hardAlpha"/>
<feOffset dx="5" dy="4"/>
<feGaussianBlur stdDeviation="2"/>
<feComposite in2="hardAlpha" operator="arithmetic" k2="-1" k3="1"/>
<feColorMatrix type="matrix" values="0 0 0 0 1 0 0 0 0 0.949176 0 0 0 0 0.949176 0 0 0 0.3 0"/>
<feBlend mode="normal" in2="shape" result="effect1_innerShadow_12_3"/>
</filter>
<filter id="filter23_i_12_3" x="12" y="60" width="44" height="41" filterUnits="userSpaceOnUse" color-interpolation-filters="sRGB">
<feFlood flood-opacity="0" result="BackgroundImageFix"/>
<feBlend mode="normal" in="SourceGraphic" in2="BackgroundImageFix" result="shape"/>
<feColorMatrix in="SourceAlpha" type="matrix" values="0 0 0 0 0 0 0 0 0 0 0 0 0 0 0 0 0 0 127 0" result="hardAlpha"/>
<feOffset dx="5" dy="4"/>
<feGaussianBlur stdDeviation="2"/>
<feComposite in2="hardAlpha" operator="arithmetic" k2="-1" k3="1"/>
<feColorMatrix type="matrix" values="0 0 0 0 1 0 0 0 0 0.949176 0 0 0 0 0.949176 0 0 0 0.3 0"/>
<feBlend mode="normal" in2="shape" result="effect1_innerShadow_12_3"/>
</filter>
<filter id="filter24_i_12_3" x="45" y="126" width="44" height="41" filterUnits="userSpaceOnUse" color-interpolation-filters="sRGB">
<feFlood flood-opacity="0" result="BackgroundImageFix"/>
<feBlend mode="normal" in="SourceGraphic" in2="BackgroundImageFix" result="shape"/>
<feColorMatrix in="SourceAlpha" type="matrix" values="0 0 0 0 0 0 0 0 0 0 0 0 0 0 0 0 0 0 127 0" result="hardAlpha"/>
<feOffset dx="5" dy="4"/>
<feGaussianBlur stdDeviation="2"/>
<feComposite in2="hardAlpha" operator="arithmetic" k2="-1" k3="1"/>
<feColorMatrix type="matrix" values="0 0 0 0 1 0 0 0 0 0.949176 0 0 0 0 0.949176 0 0 0 0.3 0"/>
<feBlend mode="normal" in2="shape" result="effect1_innerShadow_12_3"/>
</filter>
<filter id="filter25_i_12_3" x="325" y="346" width="44" height="41" filterUnits="userSpaceOnUse" color-interpolation-filters="sRGB">
<feFlood flood-opacity="0" result="BackgroundImageFix"/>
<feBlend mode="normal" in="SourceGraphic" in2="BackgroundImageFix" result="shape"/>
<feColorMatrix in="SourceAlpha" type="matrix" values="0 0 0 0 0 0 0 0 0 0 0 0 0 0 0 0 0 0 127 0" result="hardAlpha"/>
<feOffset dx="5" dy="4"/>
<feGaussianBlur stdDeviation="2"/>
<feComposite in2="hardAlpha" operator="arithmetic" k2="-1" k3="1"/>
<feColorMatrix type="matrix" values="0 0 0 0 1 0 0 0 0 0.949176 0 0 0 0 0.949176 0 0 0 0.3 0"/>
<feBlend mode="normal" in2="shape" result="effect1_innerShadow_12_3"/>
</filter>
<linearGradient id="paint0_linear_12_3" x1="322.408" y1="623" x2="244.592" y2="901" gradientUnits="userSpaceOnUse">
<stop stop-color="#FABC4D"/>
<stop offset="0.823909" stop-color="#FBFF00"/>
</linearGradient>
<linearGradient id="paint1_linear_12_3" x1="65" y1="242.5" x2="174" y2="242.5" gradientUnits="userSpaceOnUse">
<stop stop-color="#FFFF00"/>
<stop offset="1" stop-color="#FFA400"/>
</linearGradient>
<linearGradient id="paint2_linear_12_3" x1="307.408" y1="217" x2="229.592" y2="-61" gradientUnits="userSpaceOnUse">
<stop stop-color="#FABC4D"/>
<stop offset="0.823909" stop-color="#FBFF00"/>
</linearGradient>
</defs>
</svg>
